<?xml version="1.0" standalone="no"?><!DOCTYPE svg PUBLIC "-//W3C//DTD SVG 1.1//EN" "http://www.w3.org/Graphics/SVG/1.1/DTD/svg11.dtd"><svg t="1586604218227" class="icon" viewBox="0 0 1024 1024" version="1.1" xmlns="http://www.w3.org/2000/svg" p-id="2167" xmlns:xlink="http://www.w3.org/1999/xlink" width="200" height="200"><defs><style type="text/css"></style></defs><path d="M882.043614 650.766355c19.140187 0 31.900312-12.760125 31.900311-31.900311V63.800623c0-31.900312-25.520249-57.420561-57.420561-57.420561H173.856698c-31.900312-6.380062-57.420561 25.520249-57.420561 57.420561v899.588785c0 19.140187 12.760125 44.660436 31.900312 51.040499 6.380062 6.380062 12.760125 6.380062 25.520249 6.380062s19.140187 0 25.520249-6.380062L512 835.788162l312.623053 178.641745c19.140187 12.760125 38.280374 12.760125 57.420561 0 19.140187-12.760125 31.900312-31.900312 31.900311-51.040499v-165.88162c0-19.140187-12.760125-31.900312-31.900311-31.900311s-31.900312 12.760125-31.900312 31.900311V957.009346l-306.24299-178.641745c-19.140187-12.760125-38.280374-12.760125-57.420561 0L180.23676 957.009346V63.800623h484.884735v229.682243c0 19.140187 19.140187 38.280374 38.280374 38.280374s38.280374-19.140187 38.280374-38.280374V63.800623h108.461059v555.065421c0 19.140187 12.760125 31.900312 31.900312 31.900311z" p-id="2168" fill="#ffffff"></path></svg>