<?xml version="1.0" encoding="utf-8"?>
<!-- Generator: Adobe Illustrator 22.0.0, SVG Export Plug-In . SVG Version: 6.00 Build 0)  -->
<svg version="1.1" id="图层_1" xmlns="http://www.w3.org/2000/svg" xmlns:xlink="http://www.w3.org/1999/xlink" x="0px" y="0px"
	 viewBox="0 0 200 200" style="enable-background:new 0 0 200 200;" xml:space="preserve">
<style type="text/css">
	.st0{fill:#FFFFFF;}
</style>
<path class="st0" d="M174.1,20c-2.1-1-4.5-0.8-6.3,0.6c-6.5,5-17.4,7.9-29.8,7.9c-12.2,0-21.8-2.6-30.2-8.1
	C97.7,13.7,85.7,7.5,66.4,7.5c-19.2,0-34.9,6.8-42,13.6c-1.2,1.1-1.9,2.7-1.9,4.4v161c0,3.3,2.7,6,6,6c0,0,0,0,0,0c3.3,0,6-2.7,6-6
	c0,0,0,0,0,0v-60.1c6-4.5,17.7-8.7,31.8-8.7c15.2,0,24.8,4.4,34.7,10.9c10.3,6.8,22.3,10.2,36.8,10.2c15.2,0,28.4-3.7,37.2-10.4
	c1.5-1.1,2.3-2.9,2.4-4.8V25.4C177.4,23.1,176.1,21.1,174.1,20z M165.4,120.4c-6.6,4-16.4,6.3-27.5,6.3c-12.2,0-21.8-2.6-30.1-8.1
	c-10.1-6.7-22.1-12.9-41.3-12.9c-12.6,0-23.7,2.9-31.8,6.9V28.2c6-4.4,17.7-8.7,31.8-8.7c15.2,0,24.8,4.4,34.7,10.9
	c10.3,6.8,22.3,10.2,36.8,10.2c10.4,0,19.8-1.7,27.5-4.9L165.4,120.4L165.4,120.4z"/>
</svg>
