<?xml version="1.0" encoding="utf-8"?>
<!-- Generator: Adobe Illustrator 22.0.0, SVG Export Plug-In . SVG Version: 6.00 Build 0)  -->
<svg version="1.1" id="图层_1" xmlns="http://www.w3.org/2000/svg" xmlns:xlink="http://www.w3.org/1999/xlink" x="0px" y="0px"
	 viewBox="0 0 200 200" style="enable-background:new 0 0 200 200;" xml:space="preserve">
<style type="text/css">
	.st0{fill:#FFFFFF;}
</style>
<path class="st0" d="M29.2,173c-14.6,0-26.8-11.8-26.8-26.8c0-14.9,11.8-26.8,26.8-26.8c5.9,0,11.5,2.1,16.3,5.6l1.4,1V40.3
	c0-5.2,4.2-9.4,9-9.4l89.3-10.4h0.7c4.9-0.3,9.4,3.8,9.4,9v100.4c0,7.3-2.8,13.9-8,18.8c-4.9,4.9-11.8,7.6-18.8,7.6
	c-14.6,0-26.8-11.8-26.8-26.8c0-14.6,11.8-26.8,26.8-26.8c5.9,0,11.8,2.1,16.3,5.6l1.4,1V62.8l-90.3,9.7v73.7
	C55.6,161.2,43.7,173,29.2,173z M29.2,128.9c-9.7,0-17.7,8-17.7,17.7s8,17.7,17.7,17.7s17.7-8,17.7-17.7
	C46.5,136.5,38.9,128.9,29.2,128.9z M128.5,112.2c-9.7,0-17.7,8-17.7,17.7s8,17.7,17.7,17.7s17.7-8,17.7-17.7
	S138.3,112.2,128.5,112.2z M55.6,63.5l90.3-9.7V29.1L56.6,39.6h-1C55.6,39.6,55.6,63.5,55.6,63.5z"/>
</svg>
