<?xml version="1.0" encoding="utf-8"?>
<!-- Generator: Adobe Illustrator 22.0.0, SVG Export Plug-In . SVG Version: 6.00 Build 0)  -->
<svg version="1.1" xmlns="http://www.w3.org/2000/svg" xmlns:xlink="http://www.w3.org/1999/xlink" x="0px" y="0px"
	 viewBox="0 0 200 200" style="enable-background:new 0 0 200 200;" xml:space="preserve">
<style type="text/css">
	.st0{fill:#FFFFFF;}
</style>
<g id="图层_2">
	<path class="st0" d="M109.6,200c-5.8,0-11.7-2.8-17.1-8l-42.6-41.3H25c-14.4,0-23-8.7-23-23.3V72.6c0-14.6,8.6-23.3,23-23.3h24.9
		L92.5,7.9C97.9,2.8,104.1,0,109.8,0c2.3,0,4.6,0.5,6.7,1.3c7.9,3.4,12.4,12.2,12.4,24.1v149.1c0,12.1-4.5,20.8-12.4,24.1
		C114.2,199.5,112,200,109.6,200z M25,62.9c-6.8,0-9.3,2.6-9.3,9.6v54.8c0,6.8,2.7,9.6,9.3,9.6h30.4l46.5,45.2
		c2.7,2.6,5.5,4.1,7.6,4.1c0.5,0,1-0.1,1.4-0.3c2.4-1,4-5.6,4-11.5v-149c0-5.9-1.6-10.4-4-11.4c-0.4-0.2-0.9-0.3-1.4-0.3
		c-2.2,0-4.9,1.5-7.6,4.1L55.4,62.9H25z"/>
</g>
<g id="图层_1">
	<path class="st0" d="M193.1,130c-1.8,0-3.6-0.7-4.9-2.1L170,109.8l-18.2,18.2c-1.3,1.3-3.1,2.1-4.9,2.1s-3.6-0.7-4.9-2.1
		c-1.3-1.3-2.1-3.1-2.1-4.9s0.7-3.6,2.1-4.9l18.2-18.2l-18.2-18.2c-1.3-1.3-2.1-3.1-2.1-4.9c0-1.8,0.7-3.6,2.1-4.9
		c1.3-1.3,3.1-2.1,4.9-2.1s3.6,0.7,4.9,2.1L170,90.2l18.2-18.2c1.3-1.3,3.1-2.1,4.9-2.1s3.6,0.7,4.9,2.1c2.7,2.7,2.7,7,0,9.8
		L179.8,100l18.2,18.2c2.7,2.7,2.7,7,0,9.8C196.6,129.3,194.9,130,193.1,130z"/>
</g>
</svg>
