<?xml version="1.0" standalone="no"?><!DOCTYPE svg PUBLIC "-//W3C//DTD SVG 1.1//EN" "http://www.w3.org/Graphics/SVG/1.1/DTD/svg11.dtd"><svg t="1586591291187" class="icon" viewBox="0 0 1083 1024" version="1.1" xmlns="http://www.w3.org/2000/svg" p-id="2971" xmlns:xlink="http://www.w3.org/1999/xlink" width="211.5234375" height="200"><defs><style type="text/css"></style></defs><path d="M513.606873 1024c-69.108214 0-136.164188-13.542848-199.29961-40.251009-60.967017-25.788525-115.719231-62.699804-162.736824-109.717397-47.007913-47.007913-83.928872-101.760127-109.717397-162.736825-26.698481-63.125741-40.241329-130.181715-40.241329-199.289929s13.542848-136.164188 40.251009-199.299609c25.788525-60.967017 62.699804-115.719231 109.717398-162.736825 47.007913-47.007913 101.760127-83.928872 162.736824-109.717397 63.135421-26.708161 130.191395-40.251009 199.299609-40.251009 69.108214 0 136.164188 13.542848 199.29961 40.251009C773.88318 66.039535 828.635394 102.950813 875.652987 149.968406c47.007913 47.007913 83.928872 101.760127 109.717397 162.736825 26.708161 63.135421 40.251009 130.191395 40.25101 199.299609s-13.542848 136.164188-40.25101 199.29961c-25.788525 60.976697-62.699804 115.719231-109.717397 162.736824-47.007913 47.007913-101.760127 83.928872-162.736824 109.717397-63.145102 26.698481-130.201076 40.241329-199.30929 40.241329z m0-967.844131c-251.360679 0-455.848971 204.497972-455.848971 455.848971s204.497972 455.848971 455.848971 455.848971S969.455844 763.365519 969.455844 512.00484c0-251.350999-204.497972-455.848971-455.848971-455.848971z" p-id="2972" fill="#ffffff"></path><path d="M386.261508 718.361445c-15.507965 0-28.073094-12.56513-28.073094-28.073095V333.72133c0-15.507965 12.56513-28.073094 28.073094-28.073094s28.073094 12.56513 28.073095 28.073094v356.576701c0 15.498284-12.57481 28.063414-28.073095 28.063414zM640.952237 718.361445c-15.507965 0-28.073094-12.56513-28.073094-28.073095V333.72133c0-15.507965 12.56513-28.073094 28.073094-28.073094s28.073094 12.56513 28.073095 28.073094v356.576701c0 15.498284-12.56513 28.063414-28.073095 28.063414z" p-id="2973" fill="#ffffff"></path></svg>