<?xml version="1.0" standalone="no"?><!DOCTYPE svg PUBLIC "-//W3C//DTD SVG 1.1//EN" "http://www.w3.org/Graphics/SVG/1.1/DTD/svg11.dtd"><svg t="1586591276939" class="icon" viewBox="0 0 1024 1024" version="1.1" xmlns="http://www.w3.org/2000/svg" p-id="2163" xmlns:xlink="http://www.w3.org/1999/xlink" width="200" height="200"><defs><style type="text/css"></style></defs><path d="M512 0A512 512 0 1 0 1024 512 512.589353 512.589353 0 0 0 512 0z m0 965.064748A453.064748 453.064748 0 1 1 965.064748 512 453.580432 453.580432 0 0 1 512 965.064748z" fill="#ffffff" p-id="2164"></path><path d="M735.953957 488.425899l-294.676259-221.007194a29.467626 29.467626 0 0 0-47.148202 23.574101v442.014388a29.467626 29.467626 0 0 0 47.148202 23.574101l294.676259-221.007194a29.467626 29.467626 0 0 0 0-47.148202zM453.064748 674.071942v-324.143884l216.071367 162.071942z" fill="#ffffff" p-id="2165"></path></svg>