<?xml version="1.0" standalone="no"?><!DOCTYPE svg PUBLIC "-//W3C//DTD SVG 1.1//EN" "http://www.w3.org/Graphics/SVG/1.1/DTD/svg11.dtd"><svg t="1586691332624" class="icon" viewBox="0 0 1024 1024" version="1.1" xmlns="http://www.w3.org/2000/svg" p-id="2135" xmlns:xlink="http://www.w3.org/1999/xlink" width="200" height="200"><defs><style type="text/css"></style></defs><path d="M857.146343 390.039297c-10.937097 4.6366-23.552415-0.463558-28.189016-11.44875C775.105838 250.806209 650.71069 168.174234 512.004605 168.174234c-189.5511 0-343.830883 154.247037-343.830883 343.830883 0 189.567473 154.279782 343.830883 343.830883 343.830883 138.626267 0 263.021415-82.535785 316.90565-210.257701 4.621251-10.952446 17.251919-16.053628 28.124548-11.416004 10.952446 4.588505 16.1007 17.188474 11.464099 28.157293-60.582797 143.66298-200.568015 236.495272-356.494297 236.495272-213.263152 0-386.809743-173.530219-386.809743-386.809743 0-213.263152 173.546591-386.809743 386.809743-386.809743 156.037822 0 295.974945 92.929506 356.590488 236.719376C873.198947 372.851846 868.082416 385.467165 857.146343 390.039297L857.146343 390.039297zM877.35664 404.589688 640.941186 404.589688c-11.864212 0-21.457708-9.641591-21.457708-21.521153 0-11.864212 9.593496-21.457708 21.457708-21.457708l214.894302 0 0-214.894302c0-11.879562 9.641591-21.521153 21.521153-21.521153s21.457708 9.641591 21.457708 21.521153l0 236.352009C898.814348 394.948097 889.236202 404.589688 877.35664 404.589688L877.35664 404.589688z" p-id="2136" fill="#ffffff"></path></svg>