<?xml version="1.0" encoding="utf-8"?>
<!-- Generator: Adobe Illustrator 22.0.0, SVG Export Plug-In . SVG Version: 6.00 Build 0)  -->
<svg version="1.1" id="图层_1" xmlns="http://www.w3.org/2000/svg" xmlns:xlink="http://www.w3.org/1999/xlink" x="0px" y="0px"
	 viewBox="0 0 200 200" style="enable-background:new 0 0 200 200;" xml:space="preserve">
<style type="text/css">
	.st0{fill:#FFFFFF;}
</style>
<path class="st0" d="M125.1,169.8c-3.1,0-5.7-2.9-5.7-6.5l0-0.1l6.1-95.7c0-3.1,3-5.6,6.5-5.6c3.1,0,5.7,2.9,5.7,6.5l0,0.1
	l-6.1,95.7C131.6,167.3,128.7,169.8,125.1,169.8z"/>
<path class="st0" d="M78.1,169.8c-3.8,0-6.5-2.7-6.5-6.5l-6.1-95.7v-0.1c0-2.8,2.5-5.4,5.3-5.6c0.6-0.2,1.1-0.2,1.7-0.2
	c3,0,5.2,2.4,5.2,5.8l6.1,95.4c0.5,1.7,0.3,3.3-0.7,4.6C82,168.9,80.2,169.8,78.1,169.8z"/>
<path class="st0" d="M101.6,169.8c-3.8,0-6.5-2.7-6.5-6.5V67.5c0-3.8,2.7-6.5,6.5-6.5c3.8,0,6.5,2.7,6.5,6.5v95.7
	C108.1,167,105.4,169.8,101.6,169.8z"/>
<path class="st0" d="M65.1,193.3c-9.5,0-16.8-7.2-17.8-17.6l-7.7-126h-5.8c-3.8,0-6.5-2.7-6.5-6.5c0-2.7,2.3-5.2,5.8-6.4l0.3-0.1
	h38.2V23.1c0-5.5,4.5-10,10-10h40c5.5,0,10,4.5,10,10v14.4h37.9c3.6,0,6.5,2.5,6.5,5.7c0,4-2.9,6.5-7.4,6.5h-5.8l-7.7,125.9
	c-1,10.5-8.4,17.7-17.8,17.7H65.1z M60.3,175.1c0.4,1.9,1.7,6,5.7,6h72.2c3.9,0,5.3-4,5.7-5.9l7.7-125.5H51.7L60.3,175.1z
	 M119.4,36.6V25.3H83.8v11.3H119.4z"/>
</svg>
