<?xml version="1.0" encoding="utf-8"?>
<!-- Generator: Adobe Illustrator 22.0.0, SVG Export Plug-In . SVG Version: 6.00 Build 0)  -->
<svg version="1.1" id="图层_1" xmlns="http://www.w3.org/2000/svg" xmlns:xlink="http://www.w3.org/1999/xlink" x="0px" y="0px"
	 viewBox="0 0 200 200" style="enable-background:new 0 0 200 200;" xml:space="preserve">
<style type="text/css">
	.st0{fill:#FFFFFF;}
</style>
<path class="st0" d="M107.6,200c-5.8,0-11.7-2.8-17.1-8l-42.6-41.3H23c-14.4,0-23-8.7-23-23.3V72.6c0-14.6,8.6-23.3,23-23.3h24.9
	L90.5,7.9C95.9,2.8,102.1,0,107.8,0c2.3,0,4.6,0.5,6.7,1.3c7.9,3.4,12.4,12.2,12.4,24.1v149.1c0,12.1-4.5,20.8-12.4,24.1
	C112.2,199.5,110,200,107.6,200z M23,62.9c-6.8,0-9.3,2.6-9.3,9.6v54.8c0,6.8,2.7,9.6,9.3,9.6h30.4l46.5,45.2
	c2.7,2.6,5.5,4.1,7.6,4.1c0.5,0,1-0.1,1.4-0.3c2.4-1,4-5.6,4-11.5v-149c0-5.9-1.6-10.4-4-11.4c-0.4-0.2-0.9-0.3-1.4-0.3
	c-2.2,0-4.9,1.5-7.6,4.1L53.4,62.9H23z M163.4,171c-3.1,0-5.7-2.6-5.7-5.7c0-1.7,0.8-3.3,2.2-4.4l1.1-1.2l0,0
	c17.8-17,27.5-39.7,27.5-64c0-22.9-8.8-44.6-24.7-61.3c-1.2-1.2-1.8-2.6-1.8-4.1c0-3.1,2.6-5.7,5.7-5.7c1.8,0,3.5,0.9,4.5,2.4
	l1.2,1.1l0.1,0.1c17,18.5,26.4,42.5,26.4,67.5c0,27.3-10.9,52.8-30.8,71.9l-3.3,3.2v-0.7C164.9,170.7,164.2,171,163.4,171z
	 M141.5,143.4c-3.1,0-5.7-2.6-5.7-5.7c0-1.7,0.7-3.2,2-4.2l0.9-1.3l0,0c7.9-9.6,12.2-21.6,12.2-34c0-12.7-4.5-24.9-12.7-34.5
	l-1.2-1.4l0,0c-0.9-1-1.4-2.3-1.4-3.7c0-3.1,2.6-5.7,5.7-5.7c2.3,0,4,1.1,4.8,2.2l0.9,1.3c9.9,11.7,15.3,26.6,15.3,41.8
	c0,15.2-5.4,30-15.3,41.7l-0.1,0.1l-1.2,1.2C144.8,142.7,143.2,143.4,141.5,143.4z"/>
</svg>
